<?xml version="1.0" encoding="iso-8859-1"?>
<!-- Uploaded to: SVG Repo, www.svgrepo.com, Generator: SVG Repo Mixer Tools -->
<svg height="800px" width="800px" version="1.1" id="Layer_1" xmlns="http://www.w3.org/2000/svg" xmlns:xlink="http://www.w3.org/1999/xlink" 
	 viewBox="0 0 512 512" xml:space="preserve">
<g transform="translate(1 1)">
	<path style="fill:#D0E8F9;" d="M135.533,340.333L91.16,118.467h411.307V306.2c0,18.773-15.36,34.133-34.133,34.133H135.533"/>
	<path style="fill:#0096E6;" d="M468.333,348.867H128.707L80.92,109.933H511V306.2C511,330.093,492.227,348.867,468.333,348.867z
		 M142.36,331.8h325.973c13.653,0,25.6-11.093,25.6-25.6V127h-391.68L142.36,331.8z"/>
	<path style="fill:#FFFFFF;" d="M237.933,417.133c0,23.893-18.773,42.667-42.667,42.667S152.6,441.027,152.6,417.133
		s18.773-42.667,42.667-42.667S237.933,393.24,237.933,417.133L237.933,417.133z"/>
	<path style="fill:#0096E6;" d="M195.267,468.333c-28.16,0-51.2-23.04-51.2-51.2s23.04-51.2,51.2-51.2s51.2,23.04,51.2,51.2
		S223.427,468.333,195.267,468.333z M195.267,383c-18.773,0-34.133,15.36-34.133,34.133s15.36,34.133,34.133,34.133
		s34.133-15.36,34.133-34.133S214.04,383,195.267,383z"/>
	<path style="fill:#FFFFFF;" d="M434.2,417.133c0,23.893-18.773,42.667-42.667,42.667s-42.667-18.773-42.667-42.667
		s18.773-42.667,42.667-42.667S434.2,393.24,434.2,417.133L434.2,417.133z"/>
	<g>
		<path style="fill:#0096E6;" d="M391.533,468.333c-28.16,0-51.2-23.04-51.2-51.2s23.04-51.2,51.2-51.2s51.2,23.04,51.2,51.2
			S419.693,468.333,391.533,468.333z M391.533,383c-18.773,0-34.133,15.36-34.133,34.133s15.36,34.133,34.133,34.133
			s34.133-15.36,34.133-34.133S410.307,383,391.533,383z"/>
		<path style="fill:#0096E6;" d="M476.867,417.133h-43.52c-5.12,0-8.533-3.413-8.533-8.533s3.413-8.533,8.533-8.533h43.52
			c5.12,0,8.533,3.413,8.533,8.533S481.987,417.133,476.867,417.133z M349.72,417.133H237.08c-5.12,0-8.533-3.413-8.533-8.533
			s3.413-8.533,8.533-8.533h112.64c5.12,0,8.533,3.413,8.533,8.533S354.84,417.133,349.72,417.133z M91.16,127
			c-4.267,0-7.68-2.56-8.533-6.827l-5.12-35.84H58.733c-5.12,0-8.533-3.413-8.533-8.533c0-5.12,3.413-8.533,8.533-8.533H91.16
			l8.533,49.493c0.853,5.12-2.56,9.387-6.827,10.24C92.013,127,92.013,127,91.16,127z"/>
	</g>
	<path style="fill:#FFFFFF;" d="M58.733,75.8c0,14.507-11.093,25.6-25.6,25.6s-25.6-11.093-25.6-25.6s11.093-25.6,25.6-25.6
		S58.733,61.293,58.733,75.8L58.733,75.8z"/>
	<g>
		<path style="fill:#0096E6;" d="M33.133,109.933C14.36,109.933-1,94.573-1,75.8s15.36-34.133,34.133-34.133
			S67.267,57.027,67.267,75.8S51.907,109.933,33.133,109.933z M33.133,58.733c-9.387,0-17.067,7.68-17.067,17.067
			s7.68,17.067,17.067,17.067S50.2,85.187,50.2,75.8S42.52,58.733,33.133,58.733z"/>
		<path style="fill:#0096E6;" d="M153.453,417.133H127c-11.947,0-23.893-5.12-31.573-14.507c-7.68-8.533-11.947-21.333-11.093-33.28
			c2.56-20.48,21.333-37.547,44.373-37.547c5.12,0,8.533,3.413,8.533,8.533c0,5.12-3.413,8.533-8.533,8.533
			c-13.653,0-25.6,10.24-27.307,23.04c-0.853,7.68,1.707,14.507,6.827,19.627s11.947,8.533,18.773,8.533h26.453
			c5.12,0,8.533,3.413,8.533,8.533S158.573,417.133,153.453,417.133z M229.4,348.867c-2.56,0-4.267-0.853-5.973-2.56
			c-3.413-3.413-3.413-8.533,0-11.947l221.867-221.867c3.413-3.413,8.533-3.413,11.947,0c3.413,3.413,3.413,8.533,0,11.947
			L235.373,346.307C233.667,348.013,231.96,348.867,229.4,348.867z M325.827,348.867c-2.56,0-4.267-0.853-5.973-2.56
			c-3.413-3.413-3.413-8.533,0-11.947l176.64-176.64c3.413-3.413,8.533-3.413,11.947,0s3.413,8.533,0,11.947L331.8,346.307
			C330.093,348.013,328.387,348.867,325.827,348.867z M422.253,348.867c-2.56,0-4.267-0.853-5.973-2.56
			c-3.413-3.413-3.413-8.533,0-11.947l80.213-80.213c3.413-3.413,8.533-3.413,11.947,0c3.413,3.413,3.413,8.533,0,11.947
			l-80.213,80.213C427.373,348.013,424.813,348.867,422.253,348.867z M146.627,335.213c-2.56,0-4.267-0.853-5.973-2.56
			c-3.413-3.413-3.413-8.533,0-11.947l208.213-208.213c3.413-3.413,8.533-3.413,11.947,0c3.413,3.413,3.413,8.533,0,11.947
			L152.6,332.653C150.893,334.36,149.187,335.213,146.627,335.213z M119.32,266.093c-2.56,0-4.267-0.853-5.973-2.56
			c-3.413-3.413-3.413-8.533,0-11.947L252.44,112.493c3.413-3.413,8.533-3.413,11.947,0c3.413,3.413,3.413,8.533,0,11.947
			L125.293,263.533C123.587,265.24,121.027,266.093,119.32,266.093z M103.107,185.88c-2.56,0-4.267-0.853-5.973-2.56
			c-3.413-3.413-3.413-8.533,0-11.947l58.88-58.88c3.413-3.413,8.533-3.413,11.947,0c3.413,3.413,3.413,8.533,0,11.947l-58.88,58.88
			C107.373,185.027,105.667,185.88,103.107,185.88z"/>
	</g>
</g>
</svg>