<?xml version="1.0" encoding="utf-8"?><!-- Uploaded to: SVG Repo, www.svgrepo.com, Generator: SVG Repo Mixer Tools -->
<svg fill="#000000" width="800px" height="800px" viewBox="0 0 24 24" id="money-alt-2" data-name="Flat Line" xmlns="http://www.w3.org/2000/svg" class="icon flat-line"><rect id="secondary" x="3" y="5" width="18" height="14" rx="1" style="fill: rgb(44, 169, 188); stroke-width: 2;"></rect><path id="primary" d="M14,9H11.5A1.5,1.5,0,0,0,10,10.5h0A1.5,1.5,0,0,0,11.5,12h1A1.5,1.5,0,0,1,14,13.5h0A1.5,1.5,0,0,1,12.5,15H10" style="fill: none; stroke: rgb(0, 0, 0); stroke-linecap: round; stroke-linejoin: round; stroke-width: 2;"></path><path id="primary-2" data-name="primary" d="M12,8V9m0,6v1m9,2V6a1,1,0,0,0-1-1H4A1,1,0,0,0,3,6V18a1,1,0,0,0,1,1H20A1,1,0,0,0,21,18Z" style="fill: none; stroke: rgb(0, 0, 0); stroke-linecap: round; stroke-linejoin: round; stroke-width: 2;"></path></svg>